#N canvas 1923 979 787 588 24;
#N canvas 0 50 450 250 (subpatch) 0;
#X array array1 91960 float 2;
#X coords 0 1 91960 -1 200 140 1;
#X restore 456 261 graph;
#X obj 118 135 soundfiler;
#X obj 126 227 bng 30 250 50 0 empty empty empty 17 7 0 10 -262144
-1 -1;
#X obj 134 283 tabplay~ array1;
#X obj 129 393 dac~;
#X msg 118 59 read -resize ../voice.wav array1;
#X connect 2 0 3 0;
#X connect 3 0 4 0;
#X connect 3 0 4 1;
#X connect 5 0 1 0;
