#N canvas 1923 979 787 764 24;
#X obj 108 97 bng 30 250 50 0 empty empty empty 17 7 0 10 -262144 -1
-1;
#X obj 83 613 dac~;
#X obj 108 211 readsf~;
#X msg 108 158 open ../voice.wav \, start;
#X obj 108 44 loadbang;
#X obj 107 522 +~;
#X text 249 409 <-- Wet level;
#X text 289 477 <-- Feedback;
#X obj 146 346 delread~ buf 400;
#X obj 292 284 delwrite~ buf 400;
#X obj 145 408 *~ 0.5;
#X obj 182 477 *~ 0.5;
#X connect 0 0 3 0;
#X connect 2 0 5 0;
#X connect 2 0 9 0;
#X connect 3 0 2 0;
#X connect 4 0 0 0;
#X connect 5 0 1 0;
#X connect 5 0 1 1;
#X connect 8 0 10 0;
#X connect 8 0 11 0;
#X connect 10 0 5 1;
#X connect 11 0 9 0;
